<svg width="303" height="343" viewBox="0 0 303 343" fill="none" xmlns="http://www.w3.org/2000/svg">
<path d="M0.687979 62.3795C3.72681 140.216 5.74645 182.622 12.3219 246.625C17.8842 271.1 23.7681 281.227 42.861 288.135C118.898 309.839 172.238 327.216 234.094 342.025C259.278 341.421 268.257 334.86 276.267 320.178C289.954 268.391 292.514 211.689 302.443 139.573C303.774 111.761 298.269 100.466 276.267 88.5963C195.659 54.7471 78.4899 8.48953 78.4899 8.48953C78.4899 8.48953 56.0931 -2.28697 42.861 0.478858C27.3854 5.33184 20.653 10.7053 12.3219 21.5979C2.71068 34.4504 0.193365 43.3873 0.687979 62.3795Z" fill="white"/>
</svg>
